<svg width="41" height="41" viewBox="0 0 41 41" fill="none" xmlns="http://www.w3.org/2000/svg">
<path d="M24.5498 8.08765H9.62935C8.94302 8.08765 8.38599 8.64885 8.38599 9.34033C8.38599 10.0318 8.94302 10.593 9.62935 10.593H24.5498C25.2361 10.593 25.7931 10.0318 25.7931 9.34033C25.7931 8.64885 25.2361 8.08765 24.5498 8.08765Z" fill="#2352DE"/>
<path d="M19.5763 13.0986H9.62936C8.94302 13.0986 8.38599 13.6598 8.38599 14.3513C8.38599 15.0428 8.94302 15.604 9.62936 15.604H19.5763C20.2626 15.604 20.8197 15.0428 20.8197 14.3513C20.8197 13.6598 20.2626 13.0986 19.5763 13.0986Z" fill="#2352DE"/>
<path d="M28.2799 0.570801H5.89926C3.15638 0.570801 0.925781 2.81828 0.925781 5.58189V30.6374C0.925781 31.1234 1.2043 31.5669 1.64196 31.7724C1.80857 31.85 1.9901 31.8901 2.16915 31.8901C2.45512 31.8901 2.73861 31.7899 2.96491 31.5995L10.0795 25.6263H28.2799C31.0228 25.6263 33.2534 23.3788 33.2534 20.6152V5.58189C33.2534 2.81828 31.0228 0.570801 28.2799 0.570801ZM30.7666 20.6152C30.7666 21.9957 29.6526 23.1207 28.2799 23.1207H9.62936C9.33841 23.1207 9.05741 23.2234 8.83361 23.4114L3.41252 27.9639V5.58189C3.41252 4.20134 4.52658 3.07635 5.89926 3.07635H28.2799C29.6526 3.07635 30.7666 4.20134 30.7666 5.58189V20.6152Z" fill="#2352DE"/>
<path d="M35.7401 10.593C35.0537 10.593 34.4967 11.1543 34.4967 11.8458C34.4967 12.5373 35.0537 13.0986 35.7401 13.0986C37.1127 13.0986 38.2268 14.2236 38.2268 15.6041V36.7986L34.0292 33.4161C33.8103 33.2407 33.5343 33.143 33.2533 33.143H15.8462C14.4735 33.143 13.3594 32.018 13.3594 30.6375V29.3847C13.3594 28.6931 12.8024 28.1319 12.116 28.1319C11.4297 28.1319 10.8727 28.6931 10.8727 29.3847V30.6375C10.8727 33.4011 13.1033 35.6486 15.8462 35.6486H32.8157L38.6918 40.3866C38.9181 40.567 39.1941 40.6597 39.4702 40.6597C39.6517 40.6597 39.8357 40.6196 40.0098 40.5369C40.44 40.3264 40.7135 39.888 40.7135 39.4069V15.6041C40.7135 12.8405 38.4829 10.593 35.7401 10.593Z" fill="#2352DE"/>
</svg>
