<svg width="40" height="41" viewBox="0 0 40 41" fill="none" xmlns="http://www.w3.org/2000/svg">
<path d="M24.8307 1.28659L23.5052 0.790205C23.3346 0.712486 23.1665 0.736927 23.0031 0.863323C22.8391 0.989822 22.7284 1.17972 22.6715 1.43272L14.6991 39.1255C14.6422 39.3786 14.66 39.6173 14.7526 39.8408C14.8452 40.0648 14.984 40.2156 15.1695 40.2934L16.4946 40.7899C16.6656 40.8683 16.8331 40.8437 16.9969 40.7171C17.1609 40.59 17.2714 40.4007 17.3282 40.1481L25.3008 2.45473C25.3576 2.20174 25.34 1.96306 25.2472 1.739C25.1545 1.51504 25.016 1.36421 24.8307 1.28659Z" fill="#2352DE"/>
<path d="M12.6667 7.92395C12.6667 7.66289 12.594 7.43169 12.449 7.23099L11.3606 5.72457C11.2156 5.52376 11.0486 5.4231 10.8601 5.4231C10.6715 5.4231 10.5044 5.52387 10.3595 5.72457L0.217709 19.7636C0.0724171 19.9644 0 20.1954 0 20.4565C0 20.7176 0.0726458 20.9487 0.217709 21.1494L10.3594 35.1883C10.5044 35.3895 10.6711 35.4895 10.86 35.4895C11.0489 35.4895 11.2156 35.3892 11.3606 35.1883L12.4489 33.6828C12.5939 33.4821 12.6666 33.2509 12.6666 32.9895C12.6666 32.7287 12.5939 32.4977 12.4489 32.297L3.89581 20.4565L12.449 8.61691C12.5943 8.41621 12.6667 8.18501 12.6667 7.92395Z" fill="#2352DE"/>
<path d="M39.7825 19.7634L29.6398 5.72457C29.4948 5.52387 29.3278 5.4231 29.1395 5.4231C28.9506 5.4231 28.7842 5.52387 28.6386 5.72457L27.5507 7.23087C27.4057 7.43167 27.3334 7.66245 27.3334 7.92382C27.3334 8.18519 27.4056 8.41607 27.5507 8.61677L36.1046 20.4566L27.5507 32.297C27.4057 32.4977 27.3334 32.7289 27.3334 32.9895C27.3334 33.251 27.4056 33.4821 27.5507 33.6828L28.6386 35.1883C28.7842 35.3895 28.9507 35.4895 29.1395 35.4895C29.3279 35.4895 29.4948 35.3892 29.6398 35.1883L39.7825 21.1496C39.9275 20.9489 40 20.7174 40 20.4564C40 20.1952 39.9275 19.9641 39.7825 19.7634Z" fill="#2352DE"/>
</svg>
