<svg width="41" height="41" viewBox="0 0 41 41" fill="none" xmlns="http://www.w3.org/2000/svg">
<path d="M22.084 40.2759H19.587C17.5674 40.2759 15.9242 38.6203 15.9242 36.5855V35.7343C15.0655 35.4579 14.2313 35.109 13.4299 34.6911L12.8312 35.2943C11.3812 36.7571 9.05852 36.7142 7.65063 35.2938L5.88575 33.5156C4.47538 32.0962 4.43482 29.7567 5.88622 28.2959L6.48443 27.6931C6.06969 26.8857 5.72349 26.0453 5.44909 25.18H4.60438C2.58484 25.18 0.94165 23.5245 0.94165 21.4896V18.9736C0.94165 16.9387 2.58484 15.2831 4.60446 15.2831H5.44917C5.72357 14.4179 6.06977 13.5775 6.48451 12.77L5.88583 12.1669C4.43528 10.7069 4.4753 8.36721 5.88629 6.94712L7.65133 5.16882C9.06248 3.74504 11.3846 3.7095 12.8318 5.16929L13.43 5.77195C14.2314 5.35415 15.0656 5.00525 15.9242 4.72878V3.87768C15.9242 1.84279 17.5674 0.187256 19.5871 0.187256H22.0841C24.1037 0.187256 25.7469 1.84279 25.7469 3.87768V4.72886C26.6055 5.00525 27.4397 5.35415 28.2411 5.77202L28.8398 5.16882C30.2898 3.70605 32.6125 3.74896 34.0204 5.16936L35.7853 6.94751C37.1956 8.36698 37.2362 10.7064 35.7848 12.1673L35.1866 12.77C35.6013 13.5775 35.9475 14.4179 36.2219 15.2831H37.0666C39.0863 15.2831 40.7294 16.9387 40.7294 18.9736V21.4896C40.7294 23.5245 39.0863 25.18 37.0666 25.18H36.2219C35.9475 26.0452 35.6013 26.8857 35.1866 27.6931L35.7853 28.2964C37.2358 29.7563 37.1958 32.096 35.7848 33.5161L34.0198 35.2944C32.6086 36.7182 30.2865 36.7537 28.8393 35.2939L28.2411 34.6913C27.4397 35.1091 26.6055 35.458 25.7469 35.7344V36.5856C25.7469 38.6203 24.1037 40.2759 22.084 40.2759ZM13.8196 32.2245C14.933 32.8879 16.1313 33.3891 17.3812 33.7141C17.8959 33.8479 18.2556 34.3157 18.2556 34.8513V36.5855C18.2556 37.3251 18.8529 37.9269 19.5871 37.9269H22.0841C22.8183 37.9269 23.4156 37.3251 23.4156 36.5855V34.8513C23.4156 34.3157 23.7753 33.8479 24.29 33.7141C25.5399 33.3891 26.7382 32.8879 27.8516 32.2245C28.3097 31.9515 28.8929 32.0258 29.2692 32.405L30.4884 33.6334C31.014 34.1636 31.8581 34.1513 32.3708 33.6339L34.1369 31.8545C34.6484 31.3398 34.6655 30.4892 34.1374 29.9578L32.9177 28.7289C32.5415 28.3497 32.4678 27.762 32.7386 27.3006C33.3971 26.1789 33.8944 24.9715 34.217 23.7121C34.3499 23.1934 34.8141 22.8311 35.3457 22.8311H37.0667C37.8008 22.8311 38.3982 22.2293 38.3982 21.4897V18.9736C38.3982 18.2339 37.8008 17.6321 37.0667 17.6321H35.3457C34.814 17.6321 34.3499 17.2698 34.217 16.7512C33.8944 15.4918 33.397 14.2844 32.7386 13.1627C32.4678 12.7012 32.5415 12.1135 32.9177 11.7344L34.1369 10.506C34.664 9.97561 34.6502 9.1253 34.1374 8.60923L32.3714 6.82991C31.8596 6.31346 31.0153 6.29834 30.4889 6.82944L29.2693 8.05833C28.893 8.43753 28.3096 8.51175 27.8516 8.23881C26.7383 7.57539 25.54 7.0742 24.2901 6.74918C23.7753 6.61537 23.4157 6.14762 23.4157 5.61198V3.87768C23.4157 3.138 22.8183 2.5362 22.0842 2.5362H19.5871C18.853 2.5362 18.2556 3.138 18.2556 3.87768V5.61183C18.2556 6.14746 17.896 6.61522 17.3812 6.74903C16.1313 7.07404 14.933 7.57523 13.8197 8.23865C13.3615 8.51152 12.7783 8.43729 12.402 8.05817L11.1829 6.82975C10.6573 6.29952 9.81309 6.31181 9.30043 6.82921L7.5343 8.60861C7.02281 9.12334 7.00571 9.97389 7.53384 10.5054L8.7535 11.7343C9.12978 12.1134 9.20345 12.7011 8.93263 13.1626C8.27418 14.2843 7.77684 15.4916 7.45426 16.7511C7.32137 17.2697 6.85713 17.632 6.32559 17.632H4.60446C3.87033 17.6321 3.27297 18.2339 3.27297 18.9736V21.4896C3.27297 22.2293 3.87033 22.8311 4.60446 22.8311H6.32551C6.85713 22.8311 7.3213 23.1934 7.45418 23.712C7.77676 24.9714 8.27418 26.1788 8.93255 27.3005C9.20337 27.762 9.1297 28.3497 8.75342 28.7288L7.53422 29.9572C7.00719 30.4876 7.02095 31.3379 7.53376 31.854L9.29973 33.6333C9.81161 34.1498 10.6559 34.1649 11.1823 33.6338L12.4019 32.4049C12.6791 32.1256 13.256 31.8886 13.8196 32.2245Z" fill="#2352DE"/>
</svg>
